# xmcd
#
# Track frame offsets:
#	150
#	24578
#	45122
#	62466
#	81834
#	103812
#	119297
#	136034
#	155467
#	174062
#	188468
#	211222
#	232192
#	254269
#	279384
#	301302
#	319936
#	338988
#
# Disc length: 4747 seconds
#
# Revision: 0
# Processed by: cddbd v1.5.2PL0 Copyright (c) Steve Scherf et al.
# Submitted via: EZCDAudioConverter 1.0.6.1
#
DISCID=e7128912
DTITLE=Sheryl Crow - Everyday Is A Winding Road
DYEAR=2013
DGENRE=pop
TTITLE0=If It Makes You Happy
TTITLE1=All I Wanna Do
TTITLE2=A Change Would Do You Good
TTITLE3=Everyday Is A Winding Road
TTITLE4=Soak Up The Sun
TTITLE5=Steve McQueen
TTITLE6=Can't Cry Anymore
TTITLE7=Anything But Down
TTITLE8=My Favourite Mistake
TTITLE9=Strong Enough
TTITLE10=There Goes The Neighbourhood
TTITLE11=Try Not To Remember
TTITLE12=Run, Baby, Run
TTITLE13=I Shall Believe
TTITLE14=Home
TTITLE15=Riwerwide
TTITLE16=Always On Your Side
TTITLE17=The First Cut Is The Deepest
EXTD=
EXTT0=
EXTT1=
EXTT2=
EXTT3=
EXTT4=
EXTT5=
EXTT6=
EXTT7=
EXTT8=
EXTT9=
EXTT10=
EXTT11=
EXTT12=
EXTT13=
EXTT14=
EXTT15=
EXTT16=
EXTT17=
PLAYORDER=
